<svg xmlns="http://www.w3.org/2000/svg" xmlns:xlink="http://www.w3.org/1999/xlink" xmlns:inkscape="http://www.inkscape.org/namespaces/inkscape" version="1.1" width="347.696" height="33.016" viewBox="0 0 347.696 33.016">
<text xml:space="preserve" transform="matrix(1 0 -0 1 0 33.016)" font-size="9.9626" font-family="CMBX10" font-weight="bold"><tspan y="-22.416" x="111.803">e</tspan></text>
<text xml:space="preserve" transform="matrix(1 0 -0 1 0 33.016)" font-size="9.9626" font-family="CMR10"><tspan y="-22.416" x="117.054">[</tspan></text>
<text xml:space="preserve" transform="matrix(1 0 -0 1 0 33.016)" font-size="9.9626" font-family="CMMI10" font-style="italic"><tspan y="-22.416" x="119.821">n</tspan></text>
<text xml:space="preserve" transform="matrix(1 0 -0 1 0 33.016)" font-size="9.9626" font-family="CMR10"><tspan y="-22.416" x="125.801 131.34021">]=</tspan></text>
<text xml:space="preserve" transform="matrix(1 0 -0 1 0 33.016)" font-size="9.9626" font-family="CMSY10" font-style="italic"><tspan y="-22.416" x="141.852">|</tspan></text>
<text xml:space="preserve" transform="matrix(1 0 -0 1 0 33.016)" font-size="9.9626" font-family="CMBX10" font-weight="bold"><tspan y="-22.416" x="144.619 150.0287 155.5978">val</tspan></text>
<text xml:space="preserve" transform="matrix(1 0 -0 1 0 33.016)" font-size="6.9738" font-family="CMMI7" font-style="italic"><tspan y="-20.922" x="158.781 162.5608 166.88457 170.79688 173.35626">early</tspan></text>
<text xml:space="preserve" transform="matrix(1 0 -0 1 0 33.016)" font-size="9.9626" font-family="CMSY10" font-style="italic"><tspan y="-22.416" x="178.145">|</tspan></text>
<text xml:space="preserve" transform="matrix(1 0 -0 1 0 33.016)" font-size="6.9738" font-family="CMR7"><tspan y="-26.529" x="180.912">2</tspan></text>
<text xml:space="preserve" transform="matrix(1 0 -0 1 0 33.016)" font-size="9.9626" font-family="CMSY10" font-style="italic"><tspan y="-22.416" x="187.59601 197.55861">&#x2212;|</tspan></text>
<text xml:space="preserve" transform="matrix(1 0 -0 1 0 33.016)" font-size="9.9626" font-family="CMBX10" font-weight="bold"><tspan y="-22.416" x="200.326 205.7357 211.3048">val</tspan></text>
<text xml:space="preserve" transform="matrix(1 0 -0 1 0 33.016)" font-size="6.9738" font-family="CMMI7" font-style="italic"><tspan y="-20.922" x="214.488 217.0474 221.37116 224.38384">late</tspan></text>
<text xml:space="preserve" transform="matrix(1 0 -0 1 0 33.016)" font-size="9.9626" font-family="CMSY10" font-style="italic"><tspan y="-22.416" x="228.65702">|</tspan></text>
<text xml:space="preserve" transform="matrix(1 0 -0 1 0 33.016)" font-size="6.9738" font-family="CMR7"><tspan y="-26.529" x="231.42401">2</tspan></text>
<text xml:space="preserve" transform="matrix(1 0 -0 1 0 33.016)" font-size="9.9626" font-family="CMR10"><tspan y="-22.416" x="332.974 336.84947 341.83076">(5)</tspan></text>
<text xml:space="preserve" transform="matrix(1 0 -0 1 0 33.016)" font-size="9.9626" font-family="CMBX10" font-weight="bold"><tspan y="-4.483" x="80.289">e</tspan></text>
<text xml:space="preserve" transform="matrix(1 0 -0 1 0 33.016)" font-size="9.9626" font-family="CMR10"><tspan y="-4.483" x="85.54">[</tspan></text>
<text xml:space="preserve" transform="matrix(1 0 -0 1 0 33.016)" font-size="9.9626" font-family="CMMI10" font-style="italic"><tspan y="-4.483" x="88.308">n</tspan></text>
<text xml:space="preserve" transform="matrix(1 0 -0 1 0 33.016)" font-size="9.9626" font-family="CMR10"><tspan y="-4.483" x="94.288 99.8272">]=</tspan></text>
<text xml:space="preserve" transform="matrix(1 0 -0 1 0 33.016)" font-size="9.9626" font-family="CMSY10" font-style="italic"><tspan y="-4.483" x="110.339008">|</tspan></text>
<text xml:space="preserve" transform="matrix(1 0 -0 1 0 33.016)" font-size="9.9626" font-family="CMBX10" font-weight="bold"><tspan y="-4.483" x="113.106">y</tspan></text>
<text xml:space="preserve" transform="matrix(1 0 -0 1 0 33.016)" font-size="9.9626" font-family="CMR10"><tspan y="-4.483" x="119.312007">[</tspan></text>
<text xml:space="preserve" transform="matrix(1 0 -0 1 0 33.016)" font-size="9.9626" font-family="CMMI10" font-style="italic"><tspan y="-4.483" x="122.079 128.05657">nT</tspan></text>
<text xml:space="preserve" transform="matrix(1 0 -0 1 0 33.016)" font-size="6.9738" font-family="CMMI7" font-style="italic"><tspan y="-2.9889999" x="133.881">s</tspan></text>
<text xml:space="preserve" transform="matrix(1 0 -0 1 0 33.016)" font-size="9.9626" font-family="CMR10"><tspan y="-4.483" x="140.353">+</tspan></text>
<text xml:space="preserve" transform="matrix(1 0 -0 1 0 33.016)" font-size="9.9626" font-family="CMMI10" font-style="italic"><tspan y="-4.483" x="150.316">&#x03c4;</tspan></text>
<text xml:space="preserve" transform="matrix(1 0 -0 1 0 33.016)" font-size="9.9626" font-family="CMSY10" font-style="italic"><tspan y="-4.483" x="158.013">&#x2212;</tspan></text>
<text xml:space="preserve" transform="matrix(1 0 -0 1 0 33.016)" font-size="9.9626" font-family="CMMI10" font-style="italic"><tspan y="-4.483" x="167.975">&#x03b4;</tspan></text>
<text xml:space="preserve" transform="matrix(1 0 -0 1 0 33.016)" font-size="9.9626" font-family="CMR10"><tspan y="-4.483" x="172.78">]</tspan></text>
<text xml:space="preserve" transform="matrix(1 0 -0 1 0 33.016)" font-size="9.9626" font-family="CMSY10" font-style="italic"><tspan y="-4.483" x="175.548">|</tspan></text>
<text xml:space="preserve" transform="matrix(1 0 -0 1 0 33.016)" font-size="6.9738" font-family="CMR7"><tspan y="-8.597" x="178.315">2</tspan></text>
<text xml:space="preserve" transform="matrix(1 0 -0 1 0 33.016)" font-size="9.9626" font-family="CMSY10" font-style="italic"><tspan y="-4.4830005" x="184.998 194.9606">&#x2212;|</tspan></text>
<text xml:space="preserve" transform="matrix(1 0 -0 1 0 33.016)" font-size="9.9626" font-family="CMBX10" font-weight="bold"><tspan y="-4.4830005" x="197.728">y</tspan></text>
<text xml:space="preserve" transform="matrix(1 0 -0 1 0 33.016)" font-size="9.9626" font-family="CMR10"><tspan y="-4.4830005" x="203.93399">[</tspan></text>
<text xml:space="preserve" transform="matrix(1 0 -0 1 0 33.016)" font-size="9.9626" font-family="CMMI10" font-style="italic"><tspan y="-4.4830005" x="206.702 212.67955">nT</tspan></text>
<text xml:space="preserve" transform="matrix(1 0 -0 1 0 33.016)" font-size="6.9738" font-family="CMMI7" font-style="italic"><tspan y="-2.9890004" x="218.50299">s</tspan></text>
<text xml:space="preserve" transform="matrix(1 0 -0 1 0 33.016)" font-size="9.9626" font-family="CMR10"><tspan y="-4.4830005" x="224.976">+</tspan></text>
<text xml:space="preserve" transform="matrix(1 0 -0 1 0 33.016)" font-size="9.9626" font-family="CMMI10" font-style="italic"><tspan y="-4.4830005" x="234.938">&#x03c4;</tspan></text>
<text xml:space="preserve" transform="matrix(1 0 -0 1 0 33.016)" font-size="9.9626" font-family="CMR10"><tspan y="-4.4830005" x="242.63501">+</tspan></text>
<text xml:space="preserve" transform="matrix(1 0 -0 1 0 33.016)" font-size="9.9626" font-family="CMMI10" font-style="italic"><tspan y="-4.4830005" x="252.598">&#x03b4;</tspan></text>
<text xml:space="preserve" transform="matrix(1 0 -0 1 0 33.016)" font-size="9.9626" font-family="CMR10"><tspan y="-4.4830005" x="257.403">]</tspan></text>
<text xml:space="preserve" transform="matrix(1 0 -0 1 0 33.016)" font-size="9.9626" font-family="CMSY10" font-style="italic"><tspan y="-4.4830005" x="260.17">|</tspan></text>
<text xml:space="preserve" transform="matrix(1 0 -0 1 0 33.016)" font-size="6.9738" font-family="CMR7"><tspan y="-8.597" x="262.937">2</tspan></text>
<text xml:space="preserve" transform="matrix(1 0 -0 1 0 33.016)" font-size="9.9626" font-family="CMR10"><tspan y="-4.4830005" x="332.97303 336.84849 341.82978">(6)</tspan></text>
</svg>
