<svg xmlns="http://www.w3.org/2000/svg" xmlns:xlink="http://www.w3.org/1999/xlink" xmlns:inkscape="http://www.inkscape.org/namespaces/inkscape" version="1.1" width="347.696" height="34.675" viewBox="0 0 347.696 34.675">
<text xml:space="preserve" transform="matrix(1 0 -0 1 0 34.675)" font-size="9.9626" font-family="CMBX10" font-weight="bold"><tspan y="-23.772" x="91.283">e</tspan></text>
<text xml:space="preserve" transform="matrix(1 0 -0 1 0 34.675)" font-size="9.9626" font-family="CMR10"><tspan y="-23.772" x="96.534">[</tspan></text>
<text xml:space="preserve" transform="matrix(1 0 -0 1 0 34.675)" font-size="9.9626" font-family="CMMI10" font-style="italic"><tspan y="-23.772" x="99.301998">n</tspan></text>
<text xml:space="preserve" transform="matrix(1 0 -0 1 0 34.675)" font-size="9.9626" font-family="CMR10"><tspan y="-23.772" x="105.28099 110.82019 121.34069 128.67317">]=Re</tspan></text>
<text xml:space="preserve" transform="matrix(1 0 -0 1 0 34.675)" font-size="9.9626" font-family="CMSY10" font-style="italic"><tspan y="-23.772" x="133.094">{</tspan></text>
<path transform="matrix(1,0,0,-1,138.075,2.5900002)" stroke-width=".398" stroke-linecap="butt" stroke-miterlimit="10" stroke-linejoin="miter" fill="none" stroke="#000000" d="M0 0H14.162"/>
<text xml:space="preserve" transform="matrix(1 0 -0 1 0 34.675)" font-size="9.9626" font-family="CMBX10" font-weight="bold"><tspan y="-23.772" x="138.075 143.4847 149.05379">val</tspan></text>
<text xml:space="preserve" transform="matrix(1 0 -0 1 0 34.675)" font-size="6.9738" font-family="CMMI7" font-style="italic"><tspan y="-22.276999" x="152.237 159.30844 162.12586">mid</tspan></text>
<text xml:space="preserve" transform="matrix(1 0 -0 1 0 34.675)" font-size="9.9626" font-family="CMSY10" font-style="italic"><tspan y="-23.772" x="168.985">&#x00b7;</tspan></text>
<text xml:space="preserve" transform="matrix(1 0 -0 1 0 34.675)" font-size="9.9626" font-family="CMR10"><tspan y="-23.772" x="173.966">(</tspan></text>
<text xml:space="preserve" transform="matrix(1 0 -0 1 0 34.675)" font-size="9.9626" font-family="CMBX10" font-weight="bold"><tspan y="-23.772" x="177.84 183.2497 188.81879">val</tspan></text>
<text xml:space="preserve" transform="matrix(1 0 -0 1 0 34.675)" font-size="6.9738" font-family="CMMI7" font-style="italic"><tspan y="-22.276999" x="192.002 195.56562 200.27294">cur</tspan></text>
<text xml:space="preserve" transform="matrix(1 0 -0 1 0 34.675)" font-size="9.9626" font-family="CMSY10" font-style="italic"><tspan y="-23.772" x="206.899">&#x2212;</tspan></text>
<text xml:space="preserve" transform="matrix(1 0 -0 1 0 34.675)" font-size="9.9626" font-family="CMBX10" font-weight="bold"><tspan y="-23.772" x="216.86101 222.2707 227.8398">val</tspan></text>
<text xml:space="preserve" transform="matrix(1 0 -0 1 0 34.675)" font-size="6.9738" font-family="CMMI7" font-style="italic"><tspan y="-22.276999" x="231.024 235.13158 239.04389 242.82369">prev</tspan></text>
<text xml:space="preserve" transform="matrix(1 0 -0 1 0 34.675)" font-size="9.9626" font-family="CMR10"><tspan y="-23.772" x="247.557">)</tspan></text>
<text xml:space="preserve" transform="matrix(1 0 -0 1 0 34.675)" font-size="9.9626" font-family="CMSY10" font-style="italic"><tspan y="-23.772" x="251.432">}</tspan></text>
<text xml:space="preserve" transform="matrix(1 0 -0 1 0 34.675)" font-size="9.9626" font-family="CMR10"><tspan y="-23.772" x="332.974 336.84947 341.83076">(3)</tspan></text>
<text xml:space="preserve" transform="matrix(1 0 -0 1 0 34.675)" font-size="9.9626" font-family="CMBX10" font-weight="bold"><tspan y="-4.483" x="37.429994">e</tspan></text>
<text xml:space="preserve" transform="matrix(1 0 -0 1 0 34.675)" font-size="9.9626" font-family="CMR10"><tspan y="-4.483" x="42.680994">[</tspan></text>
<text xml:space="preserve" transform="matrix(1 0 -0 1 0 34.675)" font-size="9.9626" font-family="CMMI10" font-style="italic"><tspan y="-4.483" x="45.44799">n</tspan></text>
<text xml:space="preserve" transform="matrix(1 0 -0 1 0 34.675)" font-size="9.9626" font-family="CMR10"><tspan y="-4.483" x="51.42799 56.967199 67.4877 74.820178">]=Re</tspan></text>
<text xml:space="preserve" transform="matrix(1 0 -0 1 0 34.675)" font-size="9.9626" font-family="CMSY10" font-style="italic"><tspan y="-4.483" x="79.24099">{</tspan></text>
<path transform="matrix(1,0,0,-1,84.222,21.324999)" stroke-width=".398" stroke-linecap="butt" stroke-miterlimit="10" stroke-linejoin="miter" fill="none" stroke="#000000" d="M0 0H78.116"/>
<text xml:space="preserve" transform="matrix(1 0 -0 1 0 34.675)" font-size="9.9626" font-family="CMBX10" font-weight="bold"><tspan y="-4.483" x="84.222">y</tspan></text>
<text xml:space="preserve" transform="matrix(1 0 -0 1 0 34.675)" font-size="9.9626" font-family="CMR10"><tspan y="-4.483" x="90.428 93.1976">[(</tspan></text>
<text xml:space="preserve" transform="matrix(1 0 -0 1 0 34.675)" font-size="9.9626" font-family="CMMI10" font-style="italic"><tspan y="-4.483" x="97.07">n</tspan></text>
<text xml:space="preserve" transform="matrix(1 0 -0 1 0 34.675)" font-size="9.9626" font-family="CMSY10" font-style="italic"><tspan y="-4.483" x="105.263">&#x2212;</tspan></text>
<text xml:space="preserve" transform="matrix(1 0 -0 1 0 34.675)" font-size="9.9626" font-family="CMR10"><tspan y="-4.483" x="115.226">0</tspan></text>
<text xml:space="preserve" transform="matrix(1 0 -0 1 0 34.675)" font-size="9.9626" font-family="CMMI10" font-style="italic"><tspan y="-4.483" x="120.207">.</tspan></text>
<text xml:space="preserve" transform="matrix(1 0 -0 1 0 34.675)" font-size="9.9626" font-family="CMR10"><tspan y="-4.483" x="122.975 127.9563">5)</tspan></text>
<text xml:space="preserve" transform="matrix(1 0 -0 1 0 34.675)" font-size="9.9626" font-family="CMMI10" font-style="italic"><tspan y="-4.483" x="131.83">T</tspan></text>
<text xml:space="preserve" transform="matrix(1 0 -0 1 0 34.675)" font-size="6.9738" font-family="CMMI7" font-style="italic"><tspan y="-2.9889999" x="137.65201">s</tspan></text>
<text xml:space="preserve" transform="matrix(1 0 -0 1 0 34.675)" font-size="9.9626" font-family="CMR10"><tspan y="-4.483" x="144.12502">+</tspan></text>
<text xml:space="preserve" transform="matrix(1 0 -0 1 0 34.675)" font-size="9.9626" font-family="CMMI10" font-style="italic"><tspan y="-4.483" x="154.08702">&#x03c4;</tspan></text>
<text xml:space="preserve" transform="matrix(1 0 -0 1 0 34.675)" font-size="9.9626" font-family="CMR10"><tspan y="-4.483" x="159.57003">]</tspan></text>
<text xml:space="preserve" transform="matrix(1 0 -0 1 0 34.675)" font-size="9.9626" font-family="CMSY10" font-style="italic"><tspan y="-4.483" x="164.55103">&#x00b7;</tspan></text>
<text xml:space="preserve" transform="matrix(1 0 -0 1 0 34.675)" font-size="9.9626" font-family="CMR10"><tspan y="-4.483" x="169.53302">(</tspan></text>
<text xml:space="preserve" transform="matrix(1 0 -0 1 0 34.675)" font-size="9.9626" font-family="CMBX10" font-weight="bold"><tspan y="-4.483" x="173.40702">y</tspan></text>
<text xml:space="preserve" transform="matrix(1 0 -0 1 0 34.675)" font-size="9.9626" font-family="CMR10"><tspan y="-4.483" x="179.613">[</tspan></text>
<text xml:space="preserve" transform="matrix(1 0 -0 1 0 34.675)" font-size="9.9626" font-family="CMMI10" font-style="italic"><tspan y="-4.483" x="182.38 188.35756">nT</tspan></text>
<text xml:space="preserve" transform="matrix(1 0 -0 1 0 34.675)" font-size="6.9738" font-family="CMMI7" font-style="italic"><tspan y="-2.9889999" x="194.182">s</tspan></text>
<text xml:space="preserve" transform="matrix(1 0 -0 1 0 34.675)" font-size="9.9626" font-family="CMR10"><tspan y="-4.483" x="200.654">+</tspan></text>
<text xml:space="preserve" transform="matrix(1 0 -0 1 0 34.675)" font-size="9.9626" font-family="CMMI10" font-style="italic"><tspan y="-4.483" x="210.617">&#x03c4;</tspan></text>
<text xml:space="preserve" transform="matrix(1 0 -0 1 0 34.675)" font-size="9.9626" font-family="CMR10"><tspan y="-4.483" x="216.1">]</tspan></text>
<text xml:space="preserve" transform="matrix(1 0 -0 1 0 34.675)" font-size="9.9626" font-family="CMSY10" font-style="italic"><tspan y="-4.483" x="221.08101">&#x2212;</tspan></text>
<text xml:space="preserve" transform="matrix(1 0 -0 1 0 34.675)" font-size="9.9626" font-family="CMBX10" font-weight="bold"><tspan y="-4.483" x="231.044">y</tspan></text>
<text xml:space="preserve" transform="matrix(1 0 -0 1 0 34.675)" font-size="9.9626" font-family="CMR10"><tspan y="-4.483" x="237.25 240.0196">[(</tspan></text>
<text xml:space="preserve" transform="matrix(1 0 -0 1 0 34.675)" font-size="9.9626" font-family="CMMI10" font-style="italic"><tspan y="-4.483" x="243.891">n</tspan></text>
<text xml:space="preserve" transform="matrix(1 0 -0 1 0 34.675)" font-size="9.9626" font-family="CMSY10" font-style="italic"><tspan y="-4.483" x="252.085">&#x2212;</tspan></text>
<text xml:space="preserve" transform="matrix(1 0 -0 1 0 34.675)" font-size="9.9626" font-family="CMR10"><tspan y="-4.483" x="262.048 267.0293">1)</tspan></text>
<text xml:space="preserve" transform="matrix(1 0 -0 1 0 34.675)" font-size="9.9626" font-family="CMMI10" font-style="italic"><tspan y="-4.483" x="270.904">T</tspan></text>
<text xml:space="preserve" transform="matrix(1 0 -0 1 0 34.675)" font-size="6.9738" font-family="CMMI7" font-style="italic"><tspan y="-2.9889999" x="276.725">s</tspan></text>
<text xml:space="preserve" transform="matrix(1 0 -0 1 0 34.675)" font-size="9.9626" font-family="CMR10"><tspan y="-4.483" x="283.198">+</tspan></text>
<text xml:space="preserve" transform="matrix(1 0 -0 1 0 34.675)" font-size="9.9626" font-family="CMMI10" font-style="italic"><tspan y="-4.483" x="293.16">&#x03c4;</tspan></text>
<text xml:space="preserve" transform="matrix(1 0 -0 1 0 34.675)" font-size="9.9626" font-family="CMR10"><tspan y="-4.483" x="298.643 301.4126">])</tspan></text>
<text xml:space="preserve" transform="matrix(1 0 -0 1 0 34.675)" font-size="9.9626" font-family="CMSY10" font-style="italic"><tspan y="-4.483" x="305.285">}</tspan></text>
<text xml:space="preserve" transform="matrix(1 0 -0 1 0 34.675)" font-size="9.9626" font-family="CMR10"><tspan y="-4.483" x="332.974 336.84947 341.83076">(4)</tspan></text>
</svg>
